HIERARCHY
ROOT Hips
{
	OFFSET 0.000000 97.167313 0.000000
	CHANNELS 6 Xposition Yposition Zposition Xrotation Yrotation Zrotation
	JOINT Spine
	{
		OFFSET 0.000000 13.784798 0.064400
		CHANNELS 3 Xrotation Yrotation Zrotation
		JOINT Spine1
		{
			OFFSET 0.000000 12.037903 0.404700
			CHANNELS 3 Xrotation Yrotation Zrotation
			JOINT Spine2
			{
				OFFSET 0.000000 17.795601 0.420200
				CHANNELS 3 Xrotation Yrotation Zrotation
				JOINT Neck
				{
					OFFSET 0.000000 39.131302 11.954600
					CHANNELS 3 Xrotation Yrotation Zrotation
					JOINT Head
					{
						OFFSET 0.000000 14.456192 15.627699
						CHANNELS 3 Xrotation Yrotation Zrotation
						JOINT HeadTop_End
						{
							OFFSET 0.000000 15.703506 7.603401
							CHANNELS 3 Xrotation Yrotation Zrotation
							End Site
							{
								OFFSET 0.000000 17.447403 0.000000
							}
						}
					}
				}
				JOINT LeftShoulder
				{
					OFFSET 17.399500 24.608795 1.168800
					CHANNELS 3 Xrotation Yrotation Zrotation
					JOINT LeftArm
					{
						OFFSET 18.980635 5.765305 1.818600
						CHANNELS 3 Xrotation Yrotation Zrotation
						JOINT LeftForeArm
						{
							OFFSET 49.290169 0.000000 0.000000
							CHANNELS 3 Xrotation Yrotation Zrotation
							JOINT LeftHand
							{
								OFFSET 31.562012 0.000000 0.000000
								CHANNELS 3 Xrotation Yrotation Zrotation
								JOINT LeftHandThumb1
								{
									OFFSET 6.133995 -4.388519 7.076070
									CHANNELS 3 Xrotation Yrotation Zrotation
									JOINT LeftHandThumb2
									{
										OFFSET 6.037666 -3.485840 3.485847
										CHANNELS 3 Xrotation Yrotation Zrotation
										JOINT LeftHandThumb3
										{
											OFFSET 6.496506 -3.750763 3.750761
											CHANNELS 3 Xrotation Yrotation Zrotation
											JOINT LeftHandThumb4
											{
												OFFSET 5.616882 -3.242905 3.242910
												CHANNELS 3 Xrotation Yrotation Zrotation
												End Site
												{
													OFFSET -1.254608 7.132141 0.375429
												}
											}
										}
									}
								}
								JOINT LeftHandPinky1
								{
									OFFSET 18.920792 -0.453171 -11.426712
									CHANNELS 3 Xrotation Yrotation Zrotation
									JOINT LeftHandPinky2
									{
										OFFSET 4.919586 0.000000 0.000000
										CHANNELS 3 Xrotation Yrotation Zrotation
										JOINT LeftHandPinky3
										{
											OFFSET 5.233047 0.000000 0.000000
											CHANNELS 3 Xrotation Yrotation Zrotation
											JOINT LeftHandPinky4
											{
												OFFSET 5.571716 0.000000 0.000000
												CHANNELS 3 Xrotation Yrotation Zrotation
												End Site
												{
													OFFSET -3.459808 4.342407 -0.466164
												}
											}
										}
									}
								}
								JOINT LeftHandRing1
								{
									OFFSET 22.726120 -0.094986 -6.500475
									CHANNELS 3 Xrotation Yrotation Zrotation
									JOINT LeftHandRing2
									{
										OFFSET 6.408615 0.000000 0.000000
										CHANNELS 3 Xrotation Yrotation Zrotation
										JOINT LeftHandRing3
										{
											OFFSET 6.150223 0.000000 0.000000
											CHANNELS 3 Xrotation Yrotation Zrotation
											JOINT LeftHandRing4
											{
												OFFSET 6.145386 0.000000 0.000000
												CHANNELS 3 Xrotation Yrotation Zrotation
												End Site
												{
													OFFSET -3.671402 4.923981 -0.202372
												}
											}
										}
									}
								}
								JOINT LeftHandMiddle1
								{
									OFFSET 23.373947 0.000000 0.000001
									CHANNELS 3 Xrotation Yrotation Zrotation
									JOINT LeftHandMiddle2
									{
										OFFSET 6.996567 0.000000 0.000000
										CHANNELS 3 Xrotation Yrotation Zrotation
										JOINT LeftHandMiddle3
										{
											OFFSET 7.015945 0.000000 0.000000
											CHANNELS 3 Xrotation Yrotation Zrotation
											JOINT LeftHandMiddle4
											{
												OFFSET 7.721573 0.000000 0.000000
												CHANNELS 3 Xrotation Yrotation Zrotation
												End Site
												{
													OFFSET -4.651108 6.158463 0.251582
												}
											}
										}
									}
								}
								JOINT LeftHandIndex1
								{
									OFFSET 21.310577 -0.490082 6.209344
									CHANNELS 3 Xrotation Yrotation Zrotation
									JOINT LeftHandIndex2
									{
										OFFSET 7.536453 0.000000 0.000000
										CHANNELS 3 Xrotation Yrotation Zrotation
										JOINT LeftHandIndex3
										{
											OFFSET 7.512344 0.000000 0.000000
											CHANNELS 3 Xrotation Yrotation Zrotation
											JOINT LeftHandIndex4
											{
												OFFSET 10.212402 0.000000 0.000001
												CHANNELS 3 Xrotation Yrotation Zrotation
												End Site
												{
													OFFSET -5.180801 8.690506 1.388433
												}
											}
										}
									}
								}
							}
						}
					}
				}
				JOINT RightShoulder
				{
					OFFSET -17.399500 24.608795 1.168800
					CHANNELS 3 Xrotation Yrotation Zrotation
					JOINT RightArm
					{
						OFFSET -18.980635 5.765305 1.818600
						CHANNELS 3 Xrotation Yrotation Zrotation
						JOINT RightForeArm
						{
							OFFSET -49.290169 0.000000 0.000000
							CHANNELS 3 Xrotation Yrotation Zrotation
							JOINT RightHand
							{
								OFFSET -31.562012 0.000000 0.000000
								CHANNELS 3 Xrotation Yrotation Zrotation
								JOINT RightHandThumb1
								{
									OFFSET -6.133995 -4.388519 7.076070
									CHANNELS 3 Xrotation Yrotation Zrotation
									JOINT RightHandThumb2
									{
										OFFSET -6.037666 -3.485840 3.485847
										CHANNELS 3 Xrotation Yrotation Zrotation
										JOINT RightHandThumb3
										{
											OFFSET -6.496506 -3.750763 3.750761
											CHANNELS 3 Xrotation Yrotation Zrotation
											JOINT RightHandThumb4
											{
												OFFSET -5.616882 -3.242905 3.242910
												CHANNELS 3 Xrotation Yrotation Zrotation
												End Site
												{
													OFFSET 1.254608 7.132141 0.375429
												}
											}
										}
									}
								}
								JOINT RightHandIndex1
								{
									OFFSET -21.310577 -0.490082 6.209344
									CHANNELS 3 Xrotation Yrotation Zrotation
									JOINT RightHandIndex2
									{
										OFFSET -7.536453 0.000000 0.000000
										CHANNELS 3 Xrotation Yrotation Zrotation
										JOINT RightHandIndex3
										{
											OFFSET -7.512344 0.000000 0.000000
											CHANNELS 3 Xrotation Yrotation Zrotation
											JOINT RightHandIndex4
											{
												OFFSET -10.212402 0.000000 0.000001
												CHANNELS 3 Xrotation Yrotation Zrotation
												End Site
												{
													OFFSET 5.180801 8.690506 1.388433
												}
											}
										}
									}
								}
								JOINT RightHandMiddle1
								{
									OFFSET -23.373947 0.000000 0.000001
									CHANNELS 3 Xrotation Yrotation Zrotation
									JOINT RightHandMiddle2
									{
										OFFSET -6.996567 0.000000 0.000000
										CHANNELS 3 Xrotation Yrotation Zrotation
										JOINT RightHandMiddle3
										{
											OFFSET -7.015945 0.000000 0.000000
											CHANNELS 3 Xrotation Yrotation Zrotation
											JOINT RightHandMiddle4
											{
												OFFSET -7.721573 0.000000 0.000000
												CHANNELS 3 Xrotation Yrotation Zrotation
												End Site
												{
													OFFSET 4.651108 6.158463 0.251582
												}
											}
										}
									}
								}
								JOINT RightHandRing1
								{
									OFFSET -22.726120 -0.094986 -6.500475
									CHANNELS 3 Xrotation Yrotation Zrotation
									JOINT RightHandRing2
									{
										OFFSET -6.408615 0.000000 0.000000
										CHANNELS 3 Xrotation Yrotation Zrotation
										JOINT RightHandRing3
										{
											OFFSET -6.150223 0.000000 0.000000
											CHANNELS 3 Xrotation Yrotation Zrotation
											JOINT RightHandRing4
											{
												OFFSET -6.145386 0.000000 0.000000
												CHANNELS 3 Xrotation Yrotation Zrotation
												End Site
												{
													OFFSET 3.671402 4.923981 -0.202372
												}
											}
										}
									}
								}
								JOINT RightHandPinky1
								{
									OFFSET -18.920792 -0.453171 -11.426712
									CHANNELS 3 Xrotation Yrotation Zrotation
									JOINT RightHandPinky2
									{
										OFFSET -4.919586 0.000000 0.000000
										CHANNELS 3 Xrotation Yrotation Zrotation
										JOINT RightHandPinky3
										{
											OFFSET -5.233047 0.000000 0.000000
											CHANNELS 3 Xrotation Yrotation Zrotation
											JOINT RightHandPinky4
											{
												OFFSET -5.571716 0.000000 0.000000
												CHANNELS 3 Xrotation Yrotation Zrotation
												End Site
												{
													OFFSET 3.459808 4.342407 -0.466164
												}
											}
										}
									}
								}
							}
						}
					}
				}
			}
		}
	}
	JOINT LeftUpLeg
	{
		OFFSET 19.899099 -7.885101 -3.429500
		CHANNELS 3 Xrotation Yrotation Zrotation
		JOINT LeftLeg
		{
			OFFSET 1.745560 -36.997807 10.304700
			CHANNELS 3 Xrotation Yrotation Zrotation
			JOINT LeftFoot
			{
				OFFSET -1.745558 -29.803308 -13.615400
				CHANNELS 3 Xrotation Yrotation Zrotation
				JOINT LeftToeBase
				{
					OFFSET 1.181900 -18.539904 15.226099
					CHANNELS 3 Xrotation Yrotation Zrotation
					JOINT LeftToe_End
					{
						OFFSET -0.863701 1.402801 16.534700
						CHANNELS 3 Xrotation Yrotation Zrotation
						End Site
						{
							OFFSET 0.000000 16.616566 0.000000
						}
					}
				}
			}
		}
	}
	JOINT RightUpLeg
	{
		OFFSET -19.899099 -7.885101 -3.429500
		CHANNELS 3 Xrotation Yrotation Zrotation
		JOINT RightLeg
		{
			OFFSET -1.745560 -36.997807 10.304700
			CHANNELS 3 Xrotation Yrotation Zrotation
			JOINT RightFoot
			{
				OFFSET 1.745558 -29.803308 -13.615400
				CHANNELS 3 Xrotation Yrotation Zrotation
				JOINT RightToeBase
				{
					OFFSET -1.181900 -18.539904 15.226099
					CHANNELS 3 Xrotation Yrotation Zrotation
					JOINT RightToe_End
					{
						OFFSET 0.863701 1.402801 16.534700
						CHANNELS 3 Xrotation Yrotation Zrotation
						End Site
						{
							OFFSET 0.000000 16.616566 0.000000
						}
					}
				}
			}
		}
	}
}
MOTION
Frames: 4
Frame Time: 0.033333
-9.483577 70.754059 6.835189 7.171624 -59.074921 0.654917 4.961827 10.715608 0.158152 6.079592 5.798303 -0.521031 5.085126 16.136097 1.189168 6.289639 5.421248 -4.908951 -11.393626 17.889737 5.359091 0.000001 0.000000 0.000000 3.544253 4.756011 -11.623017 -54.038862 -33.116411 -50.381545 0.000275 -81.882350 0.000284 -58.768389 25.992633 38.870316 -14.557454 10.837957 12.229967 0.749565 -4.257826 13.305511 -10.783705 -23.179376 -4.132408 -0.000001 -0.000000 0.000001 -8.298301 -6.522672 -38.520143 2.848771 5.024378 -59.084428 0.876797 3.084722 -31.727503 -0.000001 0.000004 -0.000002 -6.054123 -0.166585 -49.857567 3.046267 5.137015 -61.313952 0.351704 2.001108 -19.935113 -0.000001 0.000000 0.000003 -2.430831 1.729204 -41.460922 2.952345 5.084733 -60.259925 1.321761 3.707978 -39.227832 0.000001 -0.000001 0.000006 -0.809537 2.578175 -31.496430 3.095910 5.163766 -61.866972 0.503786 2.378629 -23.913131 -0.000001 0.000001 0.000001 -14.733700 2.115969 -4.463086 72.337570 138.834018 -52.653536 -0.000010 29.080719 0.000013 -49.752426 -7.371299 -31.498732 8.377137 -4.904126 11.021991 21.620214 -18.183881 -18.379185 -0.702980 -49.821206 -32.535220 -0.000000 -0.000001 -0.000000 0.558911 -4.406584 25.436661 1.653059 -3.560344 49.799111 1.737702 -3.630066 51.149224 -0.000001 -0.000001 0.000001 10.969805 -12.875585 52.800829 6.387594 -4.324393 111.833672 0.247341 -1.499113 18.739100 0.000000 -0.000001 -0.000004 3.705078 -7.151343 57.622440 5.328226 -4.608666 98.293403 1.627351 -3.538499 49.384013 -0.000000 -0.000000 -0.000005 0.474814 -5.172977 58.987665 3.194309 -4.421936 71.674188 1.771414 -3.656902 51.679561 0.000001 -0.000003 -0.000000 -54.909410 -20.574794 36.964465 35.831405 -12.773937 -2.767353 24.887065 1.725418 -11.756622 -0.000001 0.000002 -0.000007 -0.000000 0.000002 -0.000001 -45.509571 0.075118 -23.548278 60.262486 8.819943 3.627958 -7.703174 -3.778350 12.769603 -10.353145 -0.000027 -0.000004 -0.000000 0.000000 -0.000000 
-10.172485 73.777664 -2.075830 11.028711 -61.286201 3.110962 5.110677 10.477238 0.926816 6.308411 5.733782 0.124735 5.204268 16.033849 1.859608 6.010199 5.497593 -4.746235 -12.496669 18.583678 4.459509 0.000002 -0.000000 -0.000001 3.342831 3.885605 -11.068018 -52.875790 -31.812402 -49.380584 0.000428 -83.745359 0.000409 -57.807463 26.117723 39.098988 -14.557450 10.837954 12.229970 0.749566 -4.257821 13.305513 -10.783703 -23.179381 -4.132412 -0.000002 0.000001 -0.000002 -8.298301 -6.522676 -38.520143 2.848775 5.024381 -59.084428 0.876796 3.084720 -31.727509 -0.000001 0.000004 0.000002 -6.054124 -0.166588 -49.857570 3.046266 5.137016 -61.313959 0.351703 2.001107 -19.935116 -0.000000 -0.000001 0.000005 -2.430831 1.729202 -41.460918 2.952345 5.084733 -60.259931 1.321760 3.707979 -39.227832 -0.000001 0.000000 0.000004 -0.809537 2.578177 -31.496434 3.095910 5.163767 -61.866979 0.503786 2.378632 -23.913122 -0.000000 0.000001 0.000003 -14.973894 4.793932 -4.441297 77.819262 135.933223 -57.695708 0.000004 35.490045 0.000010 -50.675209 -7.755474 -34.661724 8.377137 -4.904124 11.021992 21.620211 -18.183881 -18.379187 -0.702980 -49.821213 -32.535220 -0.000003 -0.000002 0.000004 0.558914 -4.406586 25.436666 1.653060 -3.560344 49.799104 1.737702 -3.630066 51.149224 -0.000000 -0.000003 -0.000001 10.969805 -12.875583 52.800822 6.387595 -4.324390 111.833672 0.247341 -1.499112 18.739094 0.000001 -0.000000 -0.000006 3.705081 -7.151340 57.622440 5.328226 -4.608664 98.293403 1.627351 -3.538497 49.384016 0.000001 -0.000000 -0.000005 0.474814 -5.172978 58.987665 3.194308 -4.421937 71.674181 1.771416 -3.656904 51.679564 0.000000 -0.000002 0.000005 -60.085925 -18.394073 29.927601 51.892830 -7.718175 -2.454082 9.388949 1.540554 -10.649483 -0.790453 0.000026 -0.000001 0.000000 0.000000 0.000000 -51.256294 -4.937614 -14.486148 56.466260 4.585450 1.848656 1.228952 -0.502977 12.767318 -10.227575 0.029197 -1.715386 -0.000000 0.000002 0.000000 
-11.209518 77.135086 -12.239420 18.148975 -64.975972 9.352503 5.030684 10.534204 0.423134 6.102146 6.417205 0.514768 4.918154 16.654296 2.295241 5.970356 5.433344 -4.378255 -13.661109 18.875865 3.950037 0.000001 0.000001 0.000002 3.417883 3.714105 -11.398309 -50.782344 -31.863584 -46.590274 0.000442 -85.111677 0.000456 -59.076745 26.217466 39.499083 -14.557454 10.837960 12.229964 0.749565 -4.257823 13.305511 -10.783704 -23.179381 -4.132408 0.000001 0.000000 0.000002 -8.298301 -6.522671 -38.520146 2.848774 5.024378 -59.084428 0.876794 3.084724 -31.727509 -0.000000 0.000001 -0.000004 -6.054123 -0.166585 -49.857567 3.046266 5.137018 -61.313959 0.351703 2.001108 -19.935113 0.000000 -0.000000 0.000002 -2.430831 1.729203 -41.460922 2.952348 5.084730 -60.259925 1.321762 3.707977 -39.227836 0.000001 0.000000 0.000004 -0.809534 2.578175 -31.496430 3.095913 5.163764 -61.866979 0.503782 2.378634 -23.913127 -0.000003 -0.000000 -0.000001 -15.100657 8.148902 -3.712545 83.712909 134.359711 -62.582851 0.000013 39.987530 -0.000006 -50.779390 -8.838721 -37.597808 8.377137 -4.904127 11.021991 21.620214 -18.183888 -18.379184 -0.702984 -49.821210 -32.535224 0.000000 0.000000 -0.000000 0.558912 -4.406587 25.436661 1.653057 -3.560348 49.799104 1.737704 -3.630065 51.149224 -0.000000 -0.000001 -0.000001 10.969803 -12.875585 52.800822 6.387595 -4.324393 111.833672 0.247343 -1.499114 18.739097 -0.000000 0.000000 -0.000004 3.705079 -7.151342 57.622433 5.328225 -4.608665 98.293403 1.627352 -3.538499 49.384013 -0.000001 0.000000 0.000004 0.474811 -5.172978 58.987658 3.194305 -4.421940 71.674188 1.771414 -3.656903 51.679561 0.000001 -0.000001 -0.000001 -64.013892 -11.464037 22.285738 58.688066 -6.374944 -1.907620 2.498456 1.544865 -12.680262 -0.224703 -0.000002 -0.000001 0.000000 0.000003 -0.000000 -53.355290 -8.013951 -8.451823 48.905544 5.063193 1.115197 5.243219 1.462316 28.083677 -7.567477 0.232644 -4.666522 -0.000000 0.000000 -0.000001 
-12.089329 79.653725 -22.201393 25.696548 -69.228953 16.289123 4.912787 11.415270 0.397911 5.938460 7.371502 0.634042 4.718941 17.582304 2.448578 6.178263 5.120951 -4.209288 -13.759386 18.080983 3.551950 -0.000001 -0.000000 -0.000001 3.616891 3.702323 -12.152603 -50.517640 -32.346646 -45.002354 0.000244 -84.349230 0.000239 -59.124542 25.979075 37.878552 -14.557450 10.837950 12.229968 0.749568 -4.257824 13.305513 -10.783702 -23.179386 -4.132413 -0.000001 -0.000000 0.000000 -8.298302 -6.522677 -38.520150 2.848776 5.024380 -59.084428 0.876793 3.084726 -31.727506 -0.000002 0.000000 -0.000006 -6.054124 -0.166588 -49.857567 3.046267 5.137016 -61.313959 0.351705 2.001107 -19.935114 -0.000000 0.000001 -0.000000 -2.430831 1.729203 -41.460925 2.952345 5.084734 -60.259931 1.321761 3.707981 -39.227839 0.000001 0.000000 0.000004 -0.809535 2.578174 -31.496434 3.095909 5.163764 -61.866972 0.503786 2.378630 -23.913127 -0.000001 0.000003 0.000002 -15.231139 11.787422 -3.124257 87.936220 133.882882 -66.871001 0.000003 41.336011 0.000004 -50.247069 -8.857219 -39.472479 8.377136 -4.904130 11.021991 21.620212 -18.183881 -18.379184 -0.702984 -49.821206 -32.535217 0.000000 0.000000 0.000003 0.558911 -4.406589 25.436666 1.653056 -3.560346 49.799104 1.737702 -3.630065 51.149224 -0.000001 -0.000003 -0.000006 10.969805 -12.875585 52.800825 6.387595 -4.324393 111.833672 0.247340 -1.499113 18.739102 0.000001 0.000001 -0.000009 3.705079 -7.151343 57.622433 5.328226 -4.608665 98.293403 1.627350 -3.538499 49.384009 0.000001 -0.000000 -0.000005 0.474813 -5.172978 58.987665 3.194311 -4.421940 71.674188 1.771416 -3.656905 51.679564 -0.000000 -0.000000 0.000002 -66.656554 -1.635726 16.005899 57.549685 -6.828782 -0.956260 6.142104 0.627823 -18.090630 1.512198 -0.000002 -0.000003 0.000001 0.000000 0.000000 -50.530487 -8.419929 -5.542054 41.793900 3.443115 1.774531 7.648113 1.020944 33.710416 -5.666820 0.624521 -7.553202 -0.000001 0.000002 0.000001 
